nColumns=19
nRows=48
DataType=double
version=3
OpenSimVersion=4.1
endheader
time	ground_force_calcn_r_vx	ground_force_calcn_r_vy	ground_force_calcn_r_vz	ground_force_calcn_r_px	ground_force_calcn_r_py	ground_force_calcn_r_pz	ground_force_calcn_r_mx	ground_force_calcn_r_my	ground_force_calcn_r_mz	ground_force_calcn_l_vx	ground_force_calcn_l_vy	ground_force_calcn_l_vz	ground_force_calcn_l_px	ground_force_calcn_l_py	ground_force_calcn_l_pz	ground_force_calcn_l_mx	ground_force_calcn_l_my	ground_force_calcn_l_mz
0.641667	-3.05288	12.1948	-7.25154	1.25372	0	-0.118488	0.790372	-3.15716	1.87738	0	0	0	0	0	0	0	0	0
0.65	-14.7095	38.5103	-16.1804	1.32901	0	-0.236237	0.69656	-1.82364	0.766214	0	0	0	0	0	0	0	0	0
0.658333	-48.6859	110.966	-28.9041	1.34383	0	-0.27582	-0.166986	0.380598	-0.0991368	0	0	0	0	0	0	0	0	0
0.666667	-110.803	254.595	-43.9893	1.35424	0	-0.28696	-1.26077	2.89691	-0.500532	0	0	0	0	0	0	0	0	0
0.675	-173.047	459.801	-57.4068	1.35452	0	-0.290995	-1.92519	5.11541	-0.638665	0	0	0	0	0	0	0	0	0
0.683333	-191.599	694.448	-63.2742	1.33485	0	-0.294083	-1.75748	6.36997	-0.580395	0	0	0	0	0	0	0	0	0
0.691667	-176.381	946.359	-56.2527	1.29958	0	-0.298297	-1.09743	5.88819	-0.350001	0	0	0	0	0	0	0	0	0
0.7	-176.264	1199.45	-33.9678	1.26612	0	-0.303131	-0.528511	3.59645	-0.101849	0	0	0	0	0	0	0	0	0
0.708333	-203.239	1422.56	-0.301757	1.24136	0	-0.306897	-0.0352845	0.246973	-5.23883e-05	0	0	0	0	0	0	0	0	0
0.716667	-233.053	1594.41	32.894	1.22005	0	-0.309294	0.459102	-3.1409	-0.0647994	0	0	0	0	0	0	0	0	0
0.725	-235.899	1716.74	51.8557	1.19535	0	-0.310912	0.782866	-5.69726	-0.17209	0	0	0	0	0	0	0	0	0
0.733333	-205.47	1801.14	51.9613	1.16668	0	-0.312303	0.791879	-6.94156	-0.200258	0	0	0	0	0	0	0	0	0
0.741667	-159.567	1853.65	41.5218	1.13811	0	-0.313329	0.589719	-6.85064	-0.153454	0	0	0	0	0	0	0	0	0
0.75	-110.188	1877.03	32.8597	1.11093	0	-0.313377	0.341966	-5.82532	-0.101979	0	0	0	0	0	0	0	0	0
0.758333	-56.8032	1869.34	30.8761	1.08364	0	-0.312662	0.135786	-4.46856	-0.0738079	0	0	0	0	0	0	0	0	0
0.766667	2.50093	1822.57	32.0607	1.0553	0	-0.312177	-0.00455889	-3.32232	-0.0584428	0	0	0	0	0	0	0	0	0
0.775	65.4447	1731.26	32.4469	1.02597	0	-0.312505	-0.102535	-2.71244	-0.050836	0	0	0	0	0	0	0	0	0
0.783333	125.062	1599.62	32.5616	0.995886	0	-0.313186	-0.211173	-2.70102	-0.0549817	0	0	0	0	0	0	0	0	0
0.791667	175.089	1437.92	34.2929	0.965408	0	-0.313454	-0.379329	-3.11524	-0.0742953	0	0	0	0	0	0	0	0	0
0.8	209.13	1251.54	36.2924	0.935827	0	-0.313349	-0.608502	-3.64158	-0.105599	0	0	0	0	0	0	0	0	0
0.808333	224.232	1043.31	34.9792	0.907801	0	-0.313518	-0.851168	-3.96031	-0.132779	0	0	0	0	0	0	0	0	0
0.816667	220.595	824.689	29.0939	0.881135	0	-0.3142	-1.03499	-3.86931	-0.136504	0	0	0	0	0	0	0	0	0
0.825	199.479	614.89	21.2091	0.856496	0	-0.314818	-1.08656	-3.3493	-0.115526	0	0	0	0	0	0	0	0	0
0.833333	166.07	430.556	14.6476	0.835354	0	-0.313961	-0.976726	-2.53227	-0.0861485	0	0	0	0	0	0	0	0	0
0.841667	127.406	279.832	10.2205	0.819987	0	-0.310261	-0.735745	-1.61598	-0.0590216	0	0	0	0	0	0	0	0	0
0.85	89.45	165.058	6.59067	0.812093	0	-0.303201	-0.4291	-0.791799	-0.0316161	0	0	0	0	0	0	0	0	0
0.858333	55.0436	85.8523	2.93863	0.813592	0	-0.292046	-0.131176	-0.204597	-0.00700312	0	0	0	0	0	0	0	0	0
0.866667	27.2153	38.6067	0.102438	0.827281	0	-0.270256	0.0758615	0.107615	0.000285542	0	0	0	0	0	0	0	0	0
0.875	10.491	16.0506	-0.864614	0.846037	0	-0.209737	0.138612	0.212068	-0.0114237	0	0	0	0	0	0	0	0	0
0.883333	0	0	0	0	0	0	0	0	0	0	0	0	0	0	0	0	0	0
0.891667	0	0	0	0	0	0	0	0	0	0	0	0	0	0	0	0	0	0
0.9	0	0	0	0	0	0	0	0	0	0	0	0	0	0	0	0	0	0
0.908333	0	0	0	0	0	0	0	0	0	0	0	0	0	0	0	0	0	0
0.916667	0	0	0	0	0	0	0	0	0	0	0	0	0	0	0	0	0	0
0.925	0	0	0	0	0	0	0	0	0	0	0	0	0	0	0	0	0	0
0.933333	0	0	0	0	0	0	0	0	0	0	0	0	0	0	0	0	0	0
0.941667	0	0	0	0	0	0	0	0	0	0	0	0	0	0	0	0	0	0
0.95	0	0	0	0	0	0	0	0	0	0	0	0	0	0	0	0	0	0
0.958333	0	0	0	0	0	0	0	0	0	0	0	0	0	0	0	0	0	0
0.966667	0	0	0	0	0	0	0	0	0	0	0	0	0	0	0	0	0	0
0.975	0	0	0	0	0	0	0	0	0	0	0	0	0	0	0	0	0	0
0.983333	0	0	0	0	0	0	0	0	0	0	0	0	0	0	0	0	0	0
0.991667	0	0	0	0	0	0	0	0	0	0	0	0	0	0	0	0	0	0
1	0	0	0	0	0	0	0	0	0	-3.65012	22.2392	-1.62311	1.29405	0	-0.299973	-0.100115	0.609973	-0.0445183
1.00833	0	0	0	0	0	0	0	0	0	-17.5836	63.4487	-0.605291	1.30151	0	-0.34916	0.298	-1.0753	0.0102582
1.01667	0	0	0	0	0	0	0	0	0	-50.4819	164.236	5.26475	1.31882	0	-0.362268	0.937165	-3.04893	-0.0977368
1.025	0	0	0	0	0	0	0	0	0	-101.146	343.347	18.8418	1.3239	0	-0.360759	1.46397	-4.96953	-0.272712
1.03333	0	0	0	0	0	0	0	0	0	-145.904	575.774	37.5653	1.31451	0	-0.354936	1.59722	-6.30304	-0.411231
